<svg xmlns="http://www.w3.org/2000/svg" xmlns:xlink="http://www.w3.org/1999/xlink" version="1.1" x="0px" y="0px" viewBox="0 0 100 100" style="enable-background:new 0 0 100 100;" xml:space="preserve">
	<style type="text/css">
	.st0{display:none;}
	.st1{display:inline;fill:#FFF;}
	.st2{display:inline;fill:#FFFFFF;}
	.st3{display:inline;fill:#FFF;}
	.st4{fill:#FFF;}
	.st5{fill:#FFFFFF;}
	.st6{fill:#FFF;}
	.st7{clip-path:url(#SVGID_2_);fill:#FFF;}
	.st8{fill:#FFF;}
	.st9{clip-path:url(#SVGID_4_);fill:#FFF;}
	.st10{clip-path:url(#SVGID_6_);fill:#FFF;}
	.st11{fill:none;stroke:#6B7E87;stroke-width:3;stroke-linecap:round;stroke-miterlimit:10;}
</style><g class="st0"><rect x="-755" y="-877" class="st1" width="1253" height="1253" fill="#efefef"></rect><rect x="-7.3" y="-11.4" class="st3" width="115.3" height="124"></rect></g><g><path fill="#efefef" d="M84.3,29.6c0.8-0.9,1.1-2.2,0.6-3.3c-0.5-1.1-1.6-1.8-2.8-1.8H65.2l4.1-8.8c0.4-0.8,0-1.7-0.8-2.1c-0.8-0.4-1.7,0-2.1,0.8   l-4.7,10.1H17.9c-1.2,0-2.3,0.7-2.8,1.8c-0.5,1.1-0.2,2.4,0.6,3.3l30,32.5v16.6H34.8c-2,0-3,3.4-3,4.8c0,1.7,1.4,3,3,3h30.4   c1.7,0,3-1.4,3-3.1c0-1.4-1-4.8-3-4.8H54.3V62.1L84.3,29.6z M63.8,27.6h18.1L79,30.7H62.3L63.8,27.6z M18.1,27.6h42.2l-1.4,3.1H21   L18.1,27.6z M58.2,45.7c-0.7,1.4-1.7,2.6-2.9,3.2c-1.1,0.6-2.2,0.6-3.1,0.2c-0.9-0.4-1.6-1.3-1.8-2.5c-0.3-1.3-0.1-2.9,0.5-4.3   c1-2.2,3-3.7,4.8-3.7c0.3,0,0.6,0.1,0.9,0.2c0.2,0.1,0.4,0.2,0.4,0.2C58.9,39.9,59.5,43,58.2,45.7z M54.2,81.8h10.7l0.2,1.6H34.9   l0.2-1.6h10.7c1.7,0,3-1.4,3-3V62.1c0-0.8-0.3-1.5-0.8-2.1L23.8,33.7h33.7l-0.9,1.9c-3.2-0.5-6.8,1.7-8.6,5.4   c-1,2.1-1.2,4.3-0.7,6.3c0.4,1.5,1.1,2.8,2.2,3.7L47.2,56c-0.4,0.8,0,1.7,0.8,2.1l0.7,0.1c0.6,0,1.2-0.3,1.4-0.9l2.3-4.9   c0.4,0.1,0.8,0.1,1.1,0.1c1.1,0,2.2-0.3,3.3-0.8c1.8-1,3.4-2.6,4.3-4.7c1.8-3.8,1-8.1-1.6-10.2l1.5-3.1h15.3L52,60l0,0   c-0.5,0.6-0.8,1.3-0.8,2.1v16.7C51.2,80.5,52.5,81.8,54.2,81.8z"></path></g></svg>