<svg xmlns="http://www.w3.org/2000/svg" xmlns:xlink="http://www.w3.org/1999/xlink" version="1.1" x="0px" y="0px" viewBox="0 0 100 100" enable-background="new 0 0 100 100" xml:space="preserve"><g><path fill="#efefef" d="M72.32,40.25c1.156-0.437,3.531-1.888,10.79-9.419c3.911-4.058,7.4-7.99,7.435-8.029   c0.536-0.604,0.48-1.528-0.123-2.064c-0.605-0.535-1.529-0.479-2.064,0.125c-5.256,5.93-14.539,15.695-17.07,16.652   c-0.504,0.19-0.98,0.337-1.485,0.492c-3.047,0.937-6.194,1.905-16.388,12.076c-0.426-0.41-0.855-0.824-1.285-1.239   c10.186-10.209,11.154-13.357,12.09-16.404c0.155-0.505,0.302-0.982,0.493-1.488c0.956-2.533,10.724-11.816,16.655-17.073   c0.605-0.536,0.66-1.459,0.125-2.064c-0.535-0.604-1.459-0.66-2.064-0.125c-0.039,0.035-3.973,3.524-8.031,7.436   c-7.531,7.26-8.983,9.636-9.42,10.792c-0.224,0.592-0.391,1.137-0.553,1.663c-0.834,2.712-1.695,5.515-11.401,15.232   C33.63,31.016,14.822,13.004,14.521,12.716c-0.363-0.348-0.879-0.484-1.366-0.362c-1.004,0.251-2.916,1.231-3.705,3.309   c-0.912,2.402-0.105,5.477,2.399,9.137c5.621,8.216,11.878,14.86,15.107,18.09c4.261,4.262,9.429,9.288,11.587,10.34   c0.554,0.27,1.134,0.4,1.773,0.4c0.55,0,1.044-0.098,1.521-0.189c0.407-0.078,0.791-0.154,1.159-0.154   c0.075,0,0.154,0.004,0.238,0.012c-2.591,2.371-5.371,4.84-8.078,7.242C21.86,72.343,13.776,79.833,13.642,84.343   c-0.029,0.973,0.298,1.83,0.946,2.479l0.824,0.824c0.622,0.621,1.435,0.947,2.358,0.947c0.039,0,0.079,0,0.118-0.002   c4.506-0.133,11.996-8.213,23.794-21.506c2.53-2.85,5.135-5.783,7.621-8.488c0.74,0.771,1.541,1.605,2.38,2.48   c5.311,5.541,12.586,13.113,14.564,15.396l0.364,0.389c5.075,5.875,10.833,11.816,15.057,11.816c0.001,0,0.001,0,0.001,0   c1.088,0,2.055-0.326,2.798-1.068c1.011-1.01,1.514-2.066,1.497-3.271c-0.041-2.889-3.006-5.691-7.918-10.336   c-1.691-1.598-3.606-3.408-5.693-5.496c-2.918-2.918-9.316-9.131-16.836-16.393c9.643-9.619,12.438-10.48,15.144-11.312   C71.187,40.641,71.73,40.474,72.32,40.25z M39.496,65.144c-8.075,9.098-18.124,20.418-21.694,20.525   c-0.224,0.004-0.283-0.053-0.321-0.092l-0.824-0.824c-0.039-0.039-0.098-0.098-0.091-0.322   c0.106-3.574,11.433-13.627,20.534-21.703c2.919-2.59,5.924-5.258,8.695-7.809c0.39,0.414,0.893,0.943,1.484,1.562   C44.735,59.243,42.077,62.237,39.496,65.144z M76.037,76.128c3.9,3.686,6.98,6.598,7.004,8.252c0.003,0.25-0.06,0.648-0.641,1.23   c-0.196,0.195-0.414,0.279-0.73,0.279l0,0c-2.293,0-6.614-3.658-12.845-10.873l-0.368-0.424   c-2.025-2.338-9.033-9.648-14.663-15.521c-2.581-2.693-4.81-5.018-5.95-6.23c-1.587-1.688-3.128-2.474-4.847-2.474   c-0.648,0-1.213,0.108-1.712,0.205c-0.374,0.072-0.697,0.135-0.968,0.135c-0.193,0-0.34-0.032-0.492-0.105   c-1.323-0.646-4.957-3.936-10.8-9.779c-3.157-3.158-9.274-9.653-14.762-17.674c-1.864-2.726-2.606-5.005-2.089-6.42   c0.222-0.606,0.654-0.993,1.026-1.228c3.949,3.783,23.68,22.69,39.205,37.675c0.001,0,0.001,0,0.001,0   c0,0.002,0.001,0.002,0.002,0.002c7.969,7.691,14.83,14.352,17.878,17.398C72.402,72.69,74.334,74.517,76.037,76.128z"></path><path fill="#efefef" d="M66.816,30.171c-0.572,0.57-0.572,1.496-0.001,2.067c0.286,0.285,0.66,0.429,1.034,0.429   s0.748-0.144,1.033-0.429l0.51-0.51c0,0,0,0,0.001,0l1.53-1.531l4.082-4.081c0.001-0.001,0.002-0.001,0.002-0.002l9.183-9.183   c0.571-0.571,0.571-1.497,0-2.068s-1.497-0.571-2.067,0L68.857,28.13L66.816,30.171z"></path><path fill="#efefef" d="M70.047,33.403c-0.57,0.571-0.57,1.497,0,2.067c0.285,0.286,0.66,0.429,1.034,0.429   s0.749-0.143,1.034-0.429l0.509-0.509c0.001-0.001,0.001-0.001,0.001-0.001l14.797-14.797c0.571-0.571,0.571-1.497,0-2.068   c-0.57-0.571-1.496-0.571-2.067,0L76.17,27.28L70.047,33.403z"></path></g></svg>